<?xml version="1.0" encoding="utf-8"?>
<!-- Generator: Adobe Illustrator 16.0.0, SVG Export Plug-In . SVG Version: 6.00 Build 0)  -->
<!DOCTYPE svg PUBLIC "-//W3C//DTD SVG 1.1//EN" "http://www.w3.org/Graphics/SVG/1.1/DTD/svg11.dtd">
<svg version="1.1" id="Layer_1" xmlns="http://www.w3.org/2000/svg" xmlns:xlink="http://www.w3.org/1999/xlink" x="0px" y="0px"
	 width="336.01px" height="336.01px" viewBox="0 0 336.01 336.01" enable-background="new 0 0 336.01 336.01" xml:space="preserve">
<linearGradient id="SVGID_1_" gradientUnits="userSpaceOnUse" x1="168.0054" y1="336.0083" x2="168.0054" y2="0.002">
	<stop  offset="0" style="stop-color:#301B0A"/>
	<stop  offset="1" style="stop-color:#976542"/>
</linearGradient>
<path fill-rule="evenodd" clip-rule="evenodd" fill="url(#SVGID_1_)" d="M325.415,325.689c-0.757,4.673-1.738,7.666-4.94,9.429
	c-1.069,0.588-2.412,0.313-3.845,0.891l-289.018-0.145c-1.913-0.147-2.777-0.427-2.914-0.437c-0.708-0.046-2.076-1.378-2.543-3.17
	c-0.336-1.293-0.036-2.905,0.269-4.517c0.305-1.61,0.617-3.224,1.86-4.081c0.936-0.645,2.21-0.291,3.805-0.27
	c0.053,0,1.171,0.559,1.55,1.389c0.184,0.406,0.498,0.749-0.167,1.367c-0.386,0.361-1.332,0.443-1.488,0.725
	c-1.087,1.97,5.516,2.198,7.772,0.291c2.83-2.39,4.184-3.025,5.064-4.786c0.538-1.073,0.616-2.218,0.994-3.025
	c0.586-1.26,1.417-1.885,2.231-1.534c0.522,0.227,0.634,1.157,1.778,2.32c3.64,3.704,10.598,9.253,15.275,4.643
	c1.226-1.21,2.492-2.564,2.355-3.896c-0.145-1.424-1.92-2.111-4.01-1.201c-0.735,0.321-1.07,1.24-2.129,2.052
	c-1.272,0.976-2.76,1.585-2.749,1.202c0.018-0.627,1.031-2.086,2.045-4.145c1.323-2.682,2.963-6.188,5.582-8.328
	c2.841-2.32,5.524-4.083,8.475-4.912c1.892-0.531,3.954-0.242,6.037-0.932c0.092-0.03,0.182-0.052,0.269-0.083
	c0.245-0.091-0.599-5.911-0.601-6.444c-0.01-3.239,0.069-6.633,1.199-9.55c1.098-2.833,3.373-4.586,0.682-4.641
	c-1.954-0.043-7.294,0.86-12.423,0.684c-6.807-0.237-11.859-2.899-13.457-3.378c-6.502-1.948-14.242-7.471-18.355-12.866
	c-1.687-2.213-2.591-4.533-3.638-6.589c-1.07-2.1-2.937-5.95-2.046-14.524c0.06-0.59-1.362,0.032-1.614-0.351
	c-0.818-1.249,0.354-2.232,1.902-3.647c3.688-3.376,11.192-7.294,11.101-9.323c-0.131-2.882-0.751-2.135-4.299-5.18
	c-7.606-6.528-22.566-18.933-24.082-21.32c-0.742-1.169-1.114-2.438-0.6-2.549c3.142-0.671,22.888,17.881,25.219,18.357
	c0.475,0.098,8.5,8.975,8.538,4.103c0-0.038,1.229-13.666,2.604-27.06c1.148-11.168,2.003-22.219,2.522-24.759
	c0.089-0.432,2.813-29.641,3.948-39.967c1.004-9.136,2.227-18.091,2.914-27.391c0.274-3.689,0.675-6.941,0.496-9.426
	c-0.214-3-1.107-4.942-1.879-5.905c-1.755-2.182-7.855,10.2-7.855,13.716c-1.197,0-4.099,15.104-4.114,15.104
	c0,2.556-1.035,7.823-2.272,12.432c-1.316,4.892-4.521,10.681-5.25,10.048c-0.051-0.044-1.173-2.005,0.144-2.921
	c0.669-0.467,1.133-3.989,1.695-7.604c0.696-4.481,0.317-10.417,1.158-15.415c1.499-8.911,2.592-17.214,2.728-17.633
	c0.648-2,9.322-19.705,9.322-19.744c0.013-7.427-0.551-9.48-0.082-9.614c1.049-0.303,3.906,9.001,7.028,18.958
	c3.589,11.447,7.344,23.876,7.398,25.318c0.002,0.055,0.985,3.608,1.199,3.813c0.23,0.216,0.875,0.967,1.199,0.994
	c0.434,0.036,0.942,0.636,1.406,0.519c1.416-0.361,2.641-1.971,4.155-3.025c2.522-1.759,5.137-3.232,5.704-4.04
	c1.286-1.83,6.864-3.553,6.864-6.506c0.101,0,3.654-6.176,4.98-6.236c0.307-0.014,0.923,0.429,0.477,1.077
	c-0.308,0.448-0.751,1.031-1.199,1.492c-1.948,2.001-3.836,6.902-3.989,11.832c-0.159,5.098,2.793,14.958,5.126,19.766
	c4.943,10.185,21.933,29.176,22.263,22.168c0.011-0.235,0.454-0.729,0.351-1.201c-0.556-2.545-3.743-6.991-4.237-7.375
	c-1.668-1.302-4.856-7.962-5.81-15.333c-0.965-7.475,0.576-15.226-0.599-14.689c-0.986,0.452-1.663,1.468-2.357,2.01
	c-0.891,0.694-1.693,0.854-1.9,0.684c-0.475-0.391,0.214-2.354,1.633-4.185c0.864-1.118,3.156-3.447,5.787-5.946
	c1.743-1.658,3.769-3.015,5.19-5.491c3.748-6.542,7.887-13.786,11.637-20.015c2.825-4.694,5.541-8.619,7.007-12.287
	c0.485-1.21,0.916-1.089,1.054-2.299c0.597-5.24-1.751-11.809-2.956-17.114c-1.606-7.083-1.787-14.916-3.162-20.989
	c-0.137-0.604-2.167,2.145-4.797,4.89c-1.977,2.065-6.158,5.388-7.379,8.557c-1.489,3.868-1.232,7.707-1.385,10.629
	c-0.142,2.746-0.746,4.69-0.806,5.096c-0.392,2.664-3.226,6.397-6.573,9.428c-3.454,3.126-9.251,7.837-13.229,14.048
	c-3.979,6.21-6.139,13.927-8.123,13.819c-0.847-0.046-1.417-2.288-1.282-5.305c0.076-1.691,0.659-3.638,0.848-5.572
	c0.051-0.53,4.233-10.031,2.997-10.422c-1.842-0.583-3.95,1.371-6.325,2.465c-2.692,1.242-5.537,1.644-5.913,1.182
	c-0.419-0.519,3.458-5.392,9.158-9.781c2.926-2.253,6.321-4.131,9.054-6.423c3.296-2.765,5.706-5.921,6.077-8.245
	c0.206-1.286,0.792-12.701,1.695-12.701c0-2.354,2.396-4.175,2.396-5.16c0.225,0,1.267-1,1.385-1.015
	c0.983-0.119,2.968-1.385,4.982-3.874c1.892-2.342,1.608-4.322,3.493-7.375c1.275-2.069,3.946-2.158,4.754-4.56
	c0.661-1.962,1.045-3.99,2.088-5.843c0.919-1.633,2.505-3.11,3.038-4.724c0.944-2.85,0.51-5.975-0.248-6.92
	c-1.628-2.031-1.963-3.534-2.15-4.434c-0.119-0.577-0.083-0.79,0.622-0.829c0.703-0.039,2.076,0.099,4.649,0.207
	c0.099,0.003-1.35,1.683-1.383,3.813c-0.042,2.57,1.61,5.782,1.653,7.417c0.122,4.662,1.284,9.612,2.274,14.648
	c2.291,11.653,5.516,23.804,5.953,34.104c0.021,0.514,0.09,3.427,0.909,5.553c0.321,0.833,0.464,1.603,1.199,1.97
	c0.374,0.184,1.288,0.354,1.654,0.02c0.2-0.184,6.584-4.267,11.864-7.769c3.499-2.32,6.823-4.175,6.926-4.579
	c0.216-0.852,6.187-4.125,11.679-8.288c3.08-2.336,5.966-5.297,7.711-7.439c2.382-2.924,11.023-13.479,12.381-10.98
	c0.779,1.437-2.061,3.528-4.816,6.299c-2.547,2.558-5.879,6.267-7.875,9.488c-0.783,1.261-0.772,2.274-1.323,3.378
	c-0.749,1.5-2.275,7.636-1.613,13.55c1.33,11.853,9.947,16.336,20.279,16.969c3.895,0.239,9.375,1.1,9.715,0.352
	c0.744-1.633,24.847-22.801,24.659-20.056c-0.005,0.087-0.542,1.527-1.406,2.899c-0.416,0.665-1.123,2.289-2.294,3.337
	c-2.088,1.867-4.639,3.417-4.899,3.521c-1.438,0.583-3.958,6.127-7.233,13.054c-5.84,12.351-12.441,25.623-16.784,39.075
	c-3.008,9.315-4.577,18.653-5.665,28.158c-0.347,3.048,0.245,5.74,0.041,8.659c-1.013,14.612-0.271,25.162,3.04,39.015
	c0.199,0.84,0.371,1.26,0.517,1.491c-0.03-0.218-0.046-0.355-0.021-0.371c0.032-0.023,0.33-0.146,0.559-0.188
	c0.136,0.655,0.227,1.141,0.04,0.892c-0.12-0.165-0.32,0.086-0.577-0.311c0.222,1.63,1.667,7.816,2.067,8.805
	c0.322,0.797,0.899,3.352,1.962,5.865c1.132,2.674,2.772,5.326,3.619,6.587c0.499,0.746,0.967,1.155,1.28,2.031
	c1.759,4.923,5.929,6.136,8.538,9.718c1.139,1.562,2.959,4.356,4.217,5.841c0.257,0.307,1.236,1.035,1.652,1.451
	c0.849,0.847,3.1,1.955,3.1,2.238c0.696,0,0.211-1.021,0.167-1.285c-0.13-0.789-2.03-1.549-2.213-1.678
	c-0.247-0.181-0.897-0.727-1.137-0.932c-1.548-1.35-4.131-5.333-4.671-6.072c-0.313-0.43-3.178-2.432-5.353-4.724
	c-1.141-1.201-1.872-2.736-2.42-3.604c-0.412-0.657-0.68-0.981-1.094-1.574c-2.146-3.064-7.559-16.163-7.524-16.183
	c0.272-0.164-1.458-5.104-1.386-7.003c0.004-0.102-0.125-0.089-0.269-0.062c-0.224-1.073-0.618-2.731-0.455-3.273
	c0.368-1.213,1.076-0.401,2.646-2.549c3.102-4.247,7.87-11.839,7.979-11.87c0.271-0.082,6.131-7.875,12.03-16.494
	c1.756-2.563,3.24-5.693,4.919-8.1c2.499-3.58,5.112-6.361,6.656-8.495c1.056-1.461,1.61-2.69,1.695-2.942
	c1.809-5.376,0.937-4.682-0.62-6.444c-0.707-0.801-2.055-3.155-2.438-4.993c-0.955-4.579-1.354-8.619,1.59-10.236
	c0.482-0.264,0.813-0.87,1.469-0.974c0.736-0.117,2.847-0.431,3.059-4.806c0.011-0.216,0.831-9.218,1.943-18.545
	c1.158-9.713,3.263-19.558,3.864-20.408c0.685-0.962,0.925-0.568,1.097,1.575c0.103,1.295,0.046,3.135-0.042,5.119
	c-0.052,1.188-0.34,1.531-0.516,2.32c-0.507,2.28-0.052,4.845-0.021,7.002c0.035,2.446-0.327,4.364-0.518,4.745
	c-0.63,1.273-0.692,5.013-1.178,8.993c-0.636,5.214-1.583,10.992-0.558,13.197c0.627,1.346,2.148,1.102,2.812,1.865
	c0.697,0.802,0.503,4.107,0.495,6.608c-0.001,0.772,0.02,2.292,0.496,2.384c0.542,0.103,0.892-0.816,1.778-1.658
	c1.006-0.955,2.432-2.14,4.113-3.295c1.838-1.259,6.08-5.05,10.853-10.981c1.607-1.998,3.735-3.783,5.745-5.78
	c2.294-2.274,5.776-4.028,8.082-6.36c0.796-0.804,2.018-1.791,2.625-2.839c0.65-1.116,0.689-2.287,1.469-3.128
	c0.838-0.903,1.961-0.778,2.625-1.741c5.436-7.859,11.522-13.185,11.906-14.419c0.113-0.36,1.461-1.212,2.563-1.782
	c0.858-0.444,2.515-0.469,1.551,0.394c-0.604,0.538-2.197,2.814-4.362,6.194c-1.165,1.823-3.526,3.075-4.961,5.429
	c-1.316,2.161-2.274,4.984-3.679,7.459c-2.179,3.84-4.974,7.882-7.131,11.913c-7.914,14.797-17.715,41.263-19.555,59.485
	c-0.261,2.575-1.199,8.376-0.911,14.627c0.456,9.798,2.853,19.973,4.508,25.174c0.95,2.981,2.117,7.295,3.493,9.862
	c3.47,6.471,9.895,13.887,11.39,14.979c0.57,0.417,5.899,6.834,11.906,12.183c5.469,4.871,11.77,8.199,13.312,9.138
	c0.934,0.565,7.468,5.541,5.953,5.966c-2.563,0.723-16.07-10.55-27.06-11.852c-0.237-0.028-0.82-0.083-1.652-0.144
	c-3.709-0.269-12.574-1.854-20.134-2.301c-3.276-0.192-6.386-0.627-8.64-0.477c-1.95,0.13-4.422,0.404-4.859,1.721
	c-0.686,2.072,0.688,6.468,0.766,7.396c0.232,2.671-0.501,5.549,0.021,6.794c0.24,0.574,2.453,1.373,3.533,2.592
	c1.228,1.38,1.332,3.147,1.571,3.293c1.204,0.742,1.977,0.12,2.956,0.54c3.185,1.362,2.283,3.957,3.474,4.724
	c2.848,1.833,5.062,1.437,6.737,2.631c1.244,0.885,1.787,2.169,2.461,3.461c0.438,0.838,0.588,1.815,1.075,2.484
	c0.371,0.513,0.571,1.073,1.178,1.41c1.552,0.859,3.918,1.158,5.126,2.135c1.637,1.321,2.913,5.076,2.894,8.037
	c-0.021,3.632-2.384,6.026-3.886,7.916c-0.682,0.859-0.936,1.688-1.156,2.361c-0.3,0.91-0.396,2.745,0.867,3.999
	c2.466,2.448,8.014,3.736,13.643,6.506c6.184,3.041,12.792,6.807,17.962,9.013c4.249,1.81,9.184,3.108,13.809,3.148
	c1.748,0.017,4.194-0.368,5.333-2.153c5.596-8.773-10.037-12.683-9.922-7.108c0.065,3.125,2.858,2.668,4.486,1.534
	c0.255-0.177,0.62-0.81,0.64-1.201c0.057-0.979,0.421-2.207,0.703-1.202c0.294,1.041,1.115,3.822-0.144,5.262
	c-0.814,0.932-2.253,1.947-3.824,2.28c-1.78,0.377-3.714-0.067-4.673-1.244c-1.114-1.365-1.535-3.266-1.633-3.729
	c-0.159-0.76-0.733-2.53-0.558-3.689c0.442-2.92,3.822-5.189,7.958-5.324c4.536-0.146,9.044,2.101,11.741,5.263
	c0.898,1.056,1.598,1.904,2.191,3.108C324.675,319.929,325.827,323.14,325.415,325.689L325.415,325.689z M237.172,310.005
	c0.512,0.315,1.002,0.259,1.509,0.457c0.448,0.173,0.88,0.591,1.509,0.993c1.293,0.827,2.905,1.858,3.617,2.342
	c0.585,0.398,2.706,1.678,4.692,2.694c1.861,0.952,2.728,1.635,3.452,1.637c0.682,0.003,1.119-0.482,1.178-0.685
	c0.07-0.242-0.3-0.388-0.785-0.6c-0.664-0.293-1.417-0.808-2.066-1.265c-2.477-1.734-6.306-3.718-9.139-5.077
	c-1.642-0.786-2.941-1.509-3.471-1.47C236.58,309.111,236.661,309.69,237.172,310.005L237.172,310.005z M189.091,308.369
	c0.73,0.126,1.308-0.078,1.943-0.165c1.628-0.225,3.071-0.795,4.177-1.45c1.156-0.688,1.909-1.595,3.452-1.824
	c0.788-0.117,0.735-0.482,0.806-0.746c0.181-0.673-1.195-1.438-3.059-1.367c-0.705,0.028-1.079,0.801-1.717,1.305
	c-1.22,0.97-2.86,2.139-4.319,2.509c-0.62,0.157-1.26,0.107-1.55,0.579C188.655,307.481,188.645,308.292,189.091,308.369
	L189.091,308.369z M187.086,288.043c-0.06-0.218-0.333-0.12-0.744-0.601c-0.118-0.142-0.271-0.198-0.475-0.186
	c-0.61,0.037-1.606,0.649-2.996,1.139c-1.399,0.49-3.13,0.434-3.247,1.056c-0.083,0.453,0.967,1.031,2.503,1.265
	c2.238,0.34,1.881,0.324,3.574-0.953C186.2,289.388,187.242,288.6,187.086,288.043L187.086,288.043z M191.572,285.682
	c-0.129-0.392-0.54-0.494-0.558-0.497c-0.138-0.034-0.342-0.135-0.579-0.146s-0.505,0.069-0.703,0.394
	c-0.585,0.954-0.394,1.931-0.02,2.382c0.289,0.354,0.723,0.31,0.744,0.312c0.214,0.02,0.427,0,0.64,0
	c0.68,0,0.494-0.478,0.476-0.934C191.555,286.761,191.7,286.072,191.572,285.682L191.572,285.682z M190.395,276.109
	c0.964,0.414,2.133-0.083,1.758-2.838c-0.054-0.386-0.583-0.522-0.809-0.891c-0.325-0.537-0.399-1.288-0.682-1.617
	c-0.44-0.516-0.745-0.934-1.28-0.953c-0.179-0.005-0.396,0.03-0.642,0.124c-0.373,0.146-0.101,0.02-0.331,0.353
	c-0.333,0.482,0.026,1.556-0.475,1.804c-0.354,0.173,0.477,1.404,1.302,2.527C189.669,275.208,189.878,275.889,190.395,276.109
	L190.395,276.109z M190.786,258.955c0.083-0.294-1.735-2.703-3.472-6.34c-2.538-5.315-5.202-12.255-5.395-12.535
	c-0.646-0.945-1.166-2.378-2.315-3.418c-0.979-0.888-2.002-1.53-2.501-1.451c-0.072,0.011-0.139,0.02-0.186,0.062
	c-0.236,0.205-0.193,0.801,0.31,1.927c0.772,1.736,2.655,4.109,4.029,7.147c1.931,4.263,3.8,9.049,5.252,12.12
	c0.439,0.932,0.664,1.926,0.949,2.466C188.248,260.431,190.146,261.269,190.786,258.955L190.786,258.955z M175.837,186.804
	c0.301-0.797,0.087-1.785-0.31-2.382c-0.712-1.068-0.863-1.068-1.854-1.419c-3.727-1.325-5.065,0.485-6.002,4.235
	c-0.398,1.591-0.246,3.271-0.438,3.959c-0.134,0.475-1.399,1.009-3.167,1.89c-4.891,2.43-13.279,6.646-14.05,7.053
	c-4.107,2.183-7.531,4.318-8.452,4.473c-4.731,0.793-11.545,0.533-16.514-0.14c-2.256-0.305-3.843-0.778-3.827-0.027
	c0.01,0.55,0.657,3.006,1.911,3.001c3.14-0.015,8.445-0.368,9.967,0.231c0.451,0.178,0.357,0.553,0.039,0.998
	c-0.37,0.521-1.226,0.675-2.024,1.066c-1.759,0.858-3.957,1.611-5.177,1.074c-0.579-0.255-0.558-0.865-0.971-1.178
	c-0.688-0.519-1.67-0.618-1.989,0.128c-0.372,0.877,0.93,2.02,1.566,3.585c1.061,2.61,1.918,5.74,2.179,5.94
	c0.692,0.531,1.638-1.65,1.872-3.224c0.161-1.077-0.062-2.171,0.417-2.331c1.598-0.536,3.932-1.53,6.086-2.782
	c1.42-0.827,2.802-1.537,4.127-2.152c1.098-0.51,2.161-1.011,3.176-0.935c4.348,0.324,13.918,0.209,18.502,0.26
	c1.646,0.02,2.783-0.188,2.912,0.104c0.501,1.138,1.771,3.545,3.846,4.313c1.176,0.436,2.819,0.129,3.688-0.35
	c0.557-0.305,0.808-0.976,1.04-1.539c0.183-0.442-0.268-1.35-0.785-2.028c-0.858-1.13-1.987-2.206-1.284-3.692
	c0.218-0.459,0.89-0.544,1.226-1.219c0.493-0.986,0.592-2.601,0.137-3.247c-1.086-1.548-1.513-2.54-3.191-2.538
	c-1.579,0.004-3.33,0.56-3.298,1.854c0.023,0.903-0.544,1.291-0.979,1.924c-0.592,0.857-1.282,1.789-2.366,2.272
	c-1.596,0.712-3.61,0.751-5.443,0.775c-1.617,0.023-3.094,0.086-4.019-0.14c-0.818-0.2-0.225-0.875-0.122-0.986
	c0.204-0.227,0.659-0.429,0.971-0.429c0-0.607,6.042-3.304,6.83-3.757c0.453-0.262,10.815-4.91,10.861-2.666
	c0.024,1.149,3.124,2.2,5.441,1.587c1.803-0.475,3.457-2.269,2.996-4.291c-0.161-0.709-1.193-0.797-1.863-1.771
	c-0.713-1.036-2.116-1.929-2.554-3.201C174.672,188.312,175.517,187.651,175.837,186.804L175.837,186.804z M150.609,169.602
	c0.014,0.028,0.028,0.059,0.042,0.087c1.314-0.363,2.628-0.725,3.943-1.088c-2.299-4.666-5.911-7.962-9.747-9.782
	C147.742,162.41,148.815,162.938,150.609,169.602L150.609,169.602z M140.819,157.385c-0.428-0.324-7.494-1.628-12.866,0.74
	c2.751,0.919,5.22,2.514,6.107,3.086c3.982,3.087,9.451,8.371,14.729,8.783C146.241,160.633,142.892,158.463,140.819,157.385
	L140.819,157.385z M136.877,199.167c10.813-0.73,15.768-8.651,15.768-8.651s0.12-3.043-3.551-6.088
	C146.792,191.015,142.274,195.667,136.877,199.167L136.877,199.167z M147.359,183.34c-0.491-0.057-1.479-0.05-2.554,0
	c-8.232,1.293-13.737,6.589-26.771,6.565c5.829,8.405,14.684,9.174,14.684,9.174S143.949,194.775,147.359,183.34L147.359,183.34z
	 M154.161,188.253c0.948-1.835,1.892-4.001,2.382-7.218c-1.877-1.114-3.691-2.144-5.934-2.869c-0.289,1.406-0.578,2.812-0.866,4.217
	C151.477,183.983,152.846,185.393,154.161,188.253L154.161,188.253z M150.868,171.558c-0.014,1.551-0.028,3.102-0.042,4.652
	c1.885,0.703,4.007,1.646,5.849,2.696c0.028-0.016,0.057-0.03,0.085-0.044c0.002-2.537-0.266-6.447-1.514-8.478
	C153.785,170.775,152.327,171.167,150.868,171.558L150.868,171.558z M126.336,219.734c0.007,0.007,0.015,0.035,0.021,0.041
	c0.165,0.127,0.354,0.096,0.537-0.041H126.336L126.336,219.734z M134.812,262.973c-0.15-0.411-0.54-0.649-1.056-0.62
	c-0.17,0.009-0.363,0.05-0.558,0.124c-0.193,0.073-0.312,0.47-0.124,1.843c0.062,0.453,0.076,0.658,1.116,0.621
	c0.195-0.005,0.641,0.23,0.746-0.062c0.05-0.142-0.177-0.64-0.186-0.91C134.737,263.667,134.909,263.241,134.812,262.973
	L134.812,262.973z M129.395,267.283c-0.368-0.12-0.976-0.451-1.344-0.394c-0.22,0.036-0.347,0.209-0.289,0.663
	c0.097,0.754,0.963,0.914,1.921,2.817c1.314,2.609,2.834,7.102,3.061,8.186c0.363,1.752,1.835,6.058,3.264,7.997
	c1.476,2,2.554,1.84,2.833,1.905c0.684,0.163-0.528-3.489-1.55-6.733C136.26,278.449,132.883,268.427,129.395,267.283
	L129.395,267.283z M128.713,260.986c-0.106-0.193-0.28-0.235-0.475-0.229c-0.196,0.006-0.421,0.055-0.622,0.062
	c-0.514,0.016-0.948-0.054-1.011,0.331c-0.064,0.374-0.239,1.116,0.165,1.905c0.503,0.985,1.699,0.475,1.819-0.662
	C128.647,261.834,128.876,261.278,128.713,260.986L128.713,260.986z M139.647,280.129c1.201,2.916,2.696,6.198,4.341,8.95
	c0.64,1.07,0.767,2.296,1.86,1.989c0.815-0.229-0.483-2.94-1.529-5.553c-0.763-1.906-1.275-3.853-1.364-4.248
	c-1.452-6.417-4.718-10.553-5.292-10.546c-0.039,0-0.069,0.025-0.083,0.062C136.861,272.889,138.659,277.724,139.647,280.129
	L139.647,280.129z M151.491,281.953c0.413,0.189,3.288,1.873,6.471,3.17c3.285,1.338,6.828,2.316,6.863,2.32
	c0.56,0.035,2.239,0.176,3.391-0.083c1.085-0.241,0.935-1.428,0.949-1.43c0.949-0.092-2.282-0.32-3.865-0.85
	c-2.919-0.975-6.387-2.698-7.999-3.812c-0.558-0.386-4.517-2.93-7.524-4.185c-0.581-0.243-5.133-2.311-6.015-2.361
	c-0.061-0.004-0.101,0.003-0.124,0.02c-0.565,0.364-0.057,1.581,0.392,2.32C145.561,279.584,149.679,281.115,151.491,281.953
	L151.491,281.953z M147.047,284.708c0.071,0.468,2.717,1.689,3.371,2.07c2.419,1.422,5.608,2.925,6.635,3.356
	c2.101,0.89,3.834,1.375,4.01,1.432c0.556,0.175,1.424,0.49,1.695,0c0.489-0.888,1.385-1.434,0.992-1.865
	c-1.079-1.186-3.371-1.917-5.686-2.901c-1.918-0.815-3.787-1.919-5.58-2.507c-0.299-0.099-1.318-0.229-2.398-0.621
	c-1.143-0.415-2.365-1.016-2.916-0.996c-0.078,0.004-0.137,0.011-0.186,0.043C146.553,282.996,146.918,283.849,147.047,284.708
	L147.047,284.708z M173.031,239.396c0.424,0.62,1.848,3.176,3.307,6.63c1.171,2.769,2.814,6.338,4.259,9.551
	c0.544,1.21,0.784,2.455,1.363,3.461c0.202,0.354,0.261,1.33,0.744,2.011c1.45,2.038,3.985,3.046,3.163-0.021
	c-0.405-1.515-1.514-2.976-2.19-4.455c-1.387-3.028-2.671-6.038-4.279-9.179c-1.775-3.466-2.79-6.021-4.878-9.199
	c-0.934-1.421-1.872-3.006-2.563-3.583c-0.342-0.287-0.649-0.417-0.868-0.396C170.432,234.279,170.584,235.808,173.031,239.396
	L173.031,239.396z M170.469,240.328c-1.421-2.894-3.049-5.786-3.515-5.779c-0.032,0-0.063,0.015-0.083,0.041
	c-1.378,1.831,4.982,12.152,5.808,13.717c0.216,0.408,2.544,6.768,4.692,11.933c1.289,3.1,2.706,6.04,3.163,5.905
	c2.723-0.805,0.696-2.684-0.744-6.175c-0.893-2.157-2.297-5.659-4.071-9.198C175.18,249.698,172.544,244.558,170.469,240.328
	L170.469,240.328z M184.854,272.566c-0.335-0.024-0.698,0.162-1.095,0.685c-0.527,0.692-0.708,1.946-0.374,2.777
	c0.274,0.676,4.353,3.766,3.598,0.91c-0.268-1.012-0.601-2.386-0.642-2.527C186.143,273.706,185.591,272.622,184.854,272.566
	L184.854,272.566z M183.283,283.651c-0.303-0.078-1.213-0.356-1.983-0.353c-0.112,0.002-0.229,0.007-0.331,0.021
	c-0.987,0.136-1.729,0.781-3.164,1.139c-2.105,0.527-3.892,0.898-4.112,0.934c-1.393,0.225-1.136,0.845-0.187,1.346
	c0.951,0.503,2.444,1.016,2.605,1.036c1.141,0.16,2.032-0.294,3.079-0.85c0.349-0.185,1.052-0.215,1.344-0.518
	c0.353-0.366,1.791-0.827,2.708-1.491C184.002,284.365,184.637,284,183.283,283.651L183.283,283.651z M174.209,280.606
	c1.088-0.14,2.366-0.49,2.771-1.098c0.351-0.53-2.534-2.229-2.792-2.385c-0.551-0.331-1.13-0.629-1.55-0.641
	c-0.701-0.02-0.991,0.769-0.124,3.646C172.727,280.834,173.416,280.708,174.209,280.606L174.209,280.606z M176.111,275.094
	c0,0.649,4.423,2.384,4.423,2.734c1.396,0,0.427-1.863-1.075-4.288c-0.919-1.48-0.801-3.291-0.971-3.938
	c-0.088-0.338-0.873-3.143-2.521-6.899c-1.811-4.125-4.583-9.437-6.697-14.336c-2.859-6.619-5.571-13.006-5.81-12.785
	c-0.007,0.008-0.018,0.021-0.02,0.043c-0.301,2.56,1.863,9.876,3.555,17.321c1.054,4.635,1.589,9.643,2.355,13.154
	c0.769,3.515,1.759,5.548,1.965,5.553C171.405,271.658,175.824,275.094,176.111,275.094L176.111,275.094z M160.257,235.895
	c-0.213-0.642-0.503-0.844-0.746-0.789c-0.241,0.056-0.422,0.374-0.434,0.789c-0.013,0.43-0.098,1.838,0.167,3.873
	c0.299,2.309,1.232,5.295,1.776,8.434c0.618,3.558,0.779,7.386,1.261,10.4c0.641,3.996,1.335,7.2,2.088,8.163
	c0.806,1.031,1.546,0.714,1.343-0.891c-0.202-1.604-1.336-4.492-1.755-7.168c-0.299-1.906-0.188-3.828-0.353-5.574
	c-0.218-2.318-0.675-4.283-0.827-4.972c-0.041-0.191-1.873-6.19-2.687-9.655C159.664,236.688,160.629,237.017,160.257,235.895
	L160.257,235.895z M156.391,235.458c-0.112-0.01-0.239,0.006-0.372,0.021c-1.394,0.167-5.493-0.193-6.366,1.263
	c-0.563,0.94,0.363,4.618,0.558,8.352c0.239,4.579-0.133,9.361,0.248,10.628c0.544,1.815,2.173,2.864,5.477,5.264
	c2.703,1.961,5.512,4.297,5.664,3.811c1.043-3.36-0.423-5.174-1.24-8.41c-0.48-1.906-0.795-4.641-1.426-8.164
	c-0.33-1.833-0.972-5.799-1.242-8.494C157.597,238.75,158.079,235.634,156.391,235.458L156.391,235.458z M148.165,268.257
	c0.016-0.424-0.007-1.377-0.641-1.513c-0.349-0.075-1.058-0.317-1.592-0.311c-0.533,0.006-0.898,0.263-0.558,1.201
	c0.815,2.251-0.183,1.624,2.355,1.887C148.454,269.596,148.115,269.534,148.165,268.257L148.165,268.257z M146.697,250.729
	c0.276,0.775,0.12,1.894,0.331,2.279c0.76,1.393,1.107,0.195,1.281-1.803c0.085-0.992,0.269-2.183,0.166-3.356
	c-0.17-1.904-0.09-4.222-0.374-6.153c-0.206-1.405-0.003-2.905-0.165-3.667c-0.115-0.551-0.402-0.775-0.62-0.727
	c-0.131,0.03-0.223,0.162-0.269,0.374c-0.333,1.561-0.439,3.119-0.496,4.641c-0.057,1.525-0.039,3.134-0.082,4.724
	C146.435,248.277,146.254,249.487,146.697,250.729L146.697,250.729z M147.543,273.002c-1.822-0.67-3.399-0.979-3.886-0.975
	c-0.069,0.002-0.122,0.007-0.144,0.021c-0.262,0.163,0.726,0.517,1.776,1.139c1.486,0.88,3.511,2.184,5.851,3.211
	c3.137,1.38,6.114,2.463,6.16,2.466c0.441,0.046,0.882,0.1,1.054,0.021c0.717-0.324-1.104-1.109-3.431-2.301
	C152.667,275.43,149.935,273.878,147.543,273.002L147.543,273.002z M143.719,248.74c0.905,2.271,0.708-1.003,0.662-1.16
	c-0.207-0.694,0.241-1.219,0.248-1.761c0.025-1.844,0.115-3.041-0.021-4.765c-0.011-0.135-0.309-2.272-0.537-2.177
	c-0.034,0.014-0.075,0.069-0.105,0.188c-0.212,0.873-0.531,1.674-0.599,2.507c-0.097,1.217,0.147,2.497,0.27,3.999
	C143.671,246.003,143.349,247.81,143.719,248.74L143.719,248.74z M162.51,274.763c0.777-0.167,0.769-1.235,0.825-1.804
	c0.053-0.538-0.315-1.258-0.599-1.989c-0.415-1.067-0.912-2.205-1.778-3.149c-1.247-1.356-2.892-2.199-3.328-2.36
	c-0.103-0.039-1.187-0.888-2.17-1.16c-0.393-0.11-0.754-0.139-1.013-0.104c-0.428,0.058-0.545,0.305,0.124,0.601
	c0.454,0.201,1.408,3.62,3.183,6.381C159.242,273.493,161.297,275.023,162.51,274.763L162.51,274.763z M166.044,276.792
	c0.357,0.599,1.075,1.319,1.344,1.036c0.45-0.468,0.326-2.508,0.124-3.666c-0.251-1.432-0.808-1.974-1.323-1.97
	c-0.402,0.003-0.779,0.351-0.972,0.85C165.057,273.458,165.833,276.44,166.044,276.792L166.044,276.792z M139.875,266.497
	c0.289,0.249,1.58,1.115,1.695,0.662c0.282-1.112,0.418-1.879,0.227-2.196c-0.168-0.278-0.558-0.407-0.971-0.372
	c-0.415,0.034-0.847,0.224-1.075,0.601C139.484,265.63,139.52,266.188,139.875,266.497L139.875,266.497z M141.239,244.887
	c0.84,0.181,0.47-1.167,0.475-2.301c0.005-0.981,0.875-2.021,0.601-2.797c-0.144-0.407-0.301-0.751-1.716-0.953
	c-1.209-0.174-1.329,0.921-1.55,0.808c-1.043-0.54-2.713-2.736-2.811-2.837c-0.949-0.992-2.039-3.328-3.08-5.201
	c-1.422-2.561-2.134-5.843-3.412-7.854c-1.013-1.598-1.939-2.688-2.253-2.651c-0.243,0.028-0.108,0.729,0.663,2.383
	c0.455,0.978,1.417,2.151,2.253,3.854c0.948,1.93,1.819,4.497,3.39,7.48c0.903,1.716,2.241,3.55,3.307,5.677
	C138.451,243.178,140.959,244.826,141.239,244.887L141.239,244.887z M179.314,313.756c0.375-0.037,1.353-0.612,2.357-1.036
	c0.634-0.268,1.337-0.359,1.714-0.581c0.322-0.188,2.356-1.79,2.067-2.175c-0.176-0.233-0.512-0.361-0.868-0.374
	c-0.354-0.009-0.723,0.1-0.951,0.333c-1.204,1.229-1.966,1.389-3.037,2.237C179.439,313.079,177.269,313.955,179.314,313.756
	L179.314,313.756z M165.879,305.841c0.625-0.542,1.045-0.606,1.612-0.912c1.039-0.561,2.6-1.255,4.113-0.994
	c1.109,0.191,1.963,1.021,2.875,1.513c0.653,0.353,1.909,0.823,2.976,1.389c0.731,0.384,1.327,0.907,1.736,1.056
	c0.974,0.353,1.776,0-0.372-1.408c-1.228-0.806-2.59-1.831-2.852-1.97c-1.68-0.868-4.333-1.456-5.127-1.637
	c-0.162-0.035-0.327-0.057-0.495-0.062c-1.186-0.025-2.516,0.736-3.948,1.824c-0.849,0.641-1.637,0.992-1.676,1.139
	c-0.05,0.187-0.441,0.553-0.454,0.662C164.175,307.222,165.373,306.279,165.879,305.841L165.879,305.841z M154.655,300.62
	c1.143-0.261,3.048-2.283,5.395-3.979c2.096-1.513,4.772-2.997,6.552-4.205c1.382-0.938,2.4-1.725,3.019-1.679
	c1.317,0.099,2.926,1.394,3.039,1.202c0.263-0.444-1.271-2.921-2.543-2.963c-0.181-0.006-0.353,0.039-0.518,0.146
	c-1.134,0.729-2.75,2.121-3.741,3.108c-0.42,0.418-12.367,7.742-11.72,7.954C154.297,300.258,154.444,300.667,154.655,300.62
	L154.655,300.62z M158.355,293.451c0.278-0.542-1.095-1.178-2.708-2.072c-2.141-1.187-4.922-2.588-6.883-2.568
	c-0.636,0.008-0.197,1.406-0.124,2.216c0.046,0.52-0.402,0.971,0,1.473c0.503,0.627,1.52,0.767,2.479,1.265
	c0.985,0.506,1.853,1.402,2.916,1.615C155.728,295.72,157.545,295.024,158.355,293.451L158.355,293.451z M148.039,300.248
	c0.347-0.178,0.487-0.446,2.357-1.348c1.026-0.495,1.796-1.308,1.385-1.823c-0.942-1.174-6.949-3.962-12.011-6.008
	c-3.78-1.527-6.655-1.637-6.697-1.637c-0.268-0.009-1.481-1.334-2.025-2.734c-0.489-1.262-0.184-3.212-1.137-4.912
	c-0.861-1.53-1.304-3.307-2.026-5.055c-0.942-2.274-2.457-4.479-3.348-6.401c-1.348-2.903-2.058-5.049-3.452-4.869
	c-0.588,0.076,1.486,5.45,3.7,10.255c1.833,3.982,3.815,7.539,3.906,7.749c0.579,1.352,1.3,2.716,1.302,4.103
	c0.005,2.274-7.655-1.613-9.591-1.844c-0.094-0.011-2.157-0.744-4.773-0.953c-2.055-0.164-4.238,0.187-6.12,0.579
	c-1.509,0.317-2.883,0.555-3.348,1.389c-0.014,0.025,0.032,0.427,0.434,0.477c1.745,0.218,7.14,0.365,12.216,1.491
	c5.62,1.249,10.998,3.437,12.092,3.813c2.595,0.895,5.142,1.835,7.357,2.881C145.551,298.835,147.641,300.453,148.039,300.248
	L148.039,300.248z M112.01,258.809c0.223,0.37,0.808,0.083,1.242,0.188c0.491,0.117,0.836,0.592,1.281,0.311
	c0.749-0.477,0.862-1.571,0.372-2.259c-0.313-0.439-0.933-0.368-1.447-0.581c-0.503-0.207-0.935-0.538-1.24-0.558
	c-0.042-0.004-0.087,0.009-0.124,0.02c-0.042,0.013-0.089,0.03-0.124,0.062c-0.179,0.167-0.213,0.822-0.146,1.16
	C111.913,257.587,111.73,258.345,112.01,258.809L112.01,258.809z M114.099,279.818c-0.799,0.698-1.095,1.421-0.145,2.155
	c0.813,0.629,2.366,0.587,3.866,0.911c1.927,0.419,3.925,1.13,5.725,1.265c4.334,0.322,1.734-1.891-1.012-3.979
	c-1.637-1.243-4.476-1.277-5.479-1.367c-0.223-0.02-0.413-0.025-0.599-0.021C115.14,278.81,114.607,279.375,114.099,279.818
	L114.099,279.818z M115.958,276.792c0.121,0.252,0.854,0.122,1.778,0.188c1.649,0.117,3.893,0.276,4.258,0.187
	c1.486-0.374,1.546-1.479-2.191-3.149c-0.864-0.386-1.751-0.574-2.479-0.52c-0.728,0.058-1.295,0.362-1.509,0.975
	C115.632,274.991,115.45,275.739,115.958,276.792L115.958,276.792z M116.063,270.08c0.604,0.942,1.799,1.201,1.922,1.224
	c0.694,0.122,1.693,0.553,1.881-0.104c0.307-1.066-0.287-1.979-0.703-2.673c-0.411-0.687-0.771-1.143-1.962-1.058
	c-0.172,0.013-0.353,0.05-0.558,0.084c-0.526,0.09-0.393-0.094-0.684,0.331C115.533,268.512,115.746,269.589,116.063,270.08
	L116.063,270.08z M120.445,261.048c2.149,0,1.414-0.187,1.571-0.727c0.191-0.661,0.296-1.437-0.291-1.782
	c-1.141-0.673-0.992-0.432-2.005-0.6c-0.046-0.008-0.085-0.019-0.124,0C119.021,258.193,119.398,261.048,120.445,261.048
	L120.445,261.048z M99.836,292.415c-0.092,0.494,8.701,0.674,16.494,2.342c6.063,1.3,11.936,3.55,13.272,4
	c2.182,0.734,6.461,3.209,9.405,4.328c0.713,0.273,1.764,0.962,2.231,0.829c1.242-0.353,4.228-1.824,3.412-2.941
	c-1.194-1.632-5.613-2.816-6.554-3.314c-5.216-2.758-12.758-5.156-19.865-6.693c-3.576-0.772-10.284-2.03-14.056-2.154
	c-0.402-0.012-0.771-0.014-1.095,0C100.807,288.906,100.324,289.76,99.836,292.415L99.836,292.415z M101.572,247.517
	c-0.225-0.695-1.652-0.862-2.398-0.993c-0.223-0.041-0.436-0.059-0.661-0.062c-3.369-0.068-6.875,3.561-10.13,4.412
	c-0.294,0.078-0.22,0.441,0.229,0.581c0.207,0.064,0.678,0.102,1.24-0.083c0.878-0.29,2.065-0.912,3.555-1.265
	c0.77-0.183,3.101-0.546,5.395-0.829c0.934-0.115,2.565-0.033,2.792-0.186C102.189,248.692,101.679,247.845,101.572,247.517
	L101.572,247.517z M134.397,313.197c1.259,0,1.166-1.41,2.419-1.41c0-0.85,1.695-0.756,1.695-1.367c1.663,0,2.366-1.367,3.76-1.367
	c0-0.764,2.047-0.928,2.047-2.383c0.967,0,0.902-2.072,2.377-2.072c0-0.588-0.718-0.684-1.364-0.684c0,1.424-3.061,2.827-3.061,3.44
	h-0.702c0,0.532-1.796,1.367-2.377,1.367c0,0.533-1.796,1.367-2.377,1.367c0,0.838-2.419,1.017-2.419,2.072
	C133.724,312.161,134.397,312.546,134.397,313.197L134.397,313.197z M108.186,315.58c1.571,0.536,4.494,0.804,7.071,1.45
	c2.014,0.507,5.273,2.057,5.973-0.581c0.161-0.604-1.252-0.753-2.914-1.16c-0.861-0.211-7.549-2.726-10.936-2.838
	c-0.146-0.005-0.28-0.009-0.413,0C104.975,312.594,104.429,314.298,108.186,315.58L108.186,315.58z M103.227,308.493
	c0.128,0.884,0.381,1.208,2.583,1.7c2.057,0.459,5.23,0.603,7.691,1.098c2.193,0.443,4.113,1.605,5.498,1.989
	c0.938,0.259,1.335,0.606,1.778,0.725c1.043,0.282,1.038-0.109-0.312-1.513c-0.551-0.573-0.494-2.171-1.445-2.797
	c-1.104-0.723-2.894-1.095-4.694-1.45c-2.062-0.407-4.049-0.34-6.18-0.436c-2.109-0.094-3.516-0.668-4.279-0.703
	c-0.074-0.004-0.144-0.009-0.206,0C103.225,307.159,103.083,307.518,103.227,308.493L103.227,308.493z M100.993,304.619
	c0.03,0.106,3.661,0.03,7.112,0.394c2.682,0.283,5.245,1.019,5.911,1.16c3.888,0.834,7.76,2.188,10.936,3.378
	c2.972,1.115,4.579,1.987,5.705,1.822c1.277-0.187,1.844-1.539,1.054-2.403c-0.395-0.431-1.451-0.579-2.212-0.973
	c-2.599-1.347-6.428-2.712-9.096-3.399c-0.365-0.094-3.105-0.963-6.201-1.429c-4.378-0.661-9.472-0.973-9.527-0.975
	c-0.994-0.023-1.766-0.052-2.357-0.041C100.542,302.187,100.417,302.585,100.993,304.619L100.993,304.619z M99.546,298.756
	c0.144,0.412,0.585,1.128,2.729,1.346c1.203,0.122,3.569-0.452,5.498-0.207c7.074,0.896,12.856,2.488,19.431,5.034
	c3.567,1.383,6.281,2.647,6.862,2.756c1.435,0.268,2.163-0.331,3.371-1.347c0.937-0.79,3.385-1.404,1.302-2.029
	c-1.249-0.376-7.23-2.804-13.332-4.705c-3.259-1.013-6.483-1.385-9.2-2.299c-3.1-1.041-6.773-1.171-9.673-1.472
	c-2.393-0.246-4.161-0.457-5.374-0.414C99.137,295.494,98.68,296.26,99.546,298.756L99.546,298.756z M94.689,260.322
	c0.506-0.061,0.272-0.241,0.765-0.353c2.021-0.457,3.259-0.303,3.7-0.765c0.444-0.47,0.03-0.877,0-1.493
	c-0.041-0.801,0.053-1.589-0.208-2.071c-0.161-0.299-0.356-0.379-0.538-0.373c-0.181,0.003-0.344,0.085-0.454,0.083
	c-0.785-0.013-0.797,2.38-0.806,2.403c-0.152,0.398-0.899,0.549-1.365,1.201c-1.001,1.4-1.749,0.479-3.183-0.768
	c-1.082-0.938-1.917-2.12-2.088-1.491c-0.211,0.777-0.342,1.649,0.146,2.259C91.439,259.936,93.384,260.474,94.689,260.322
	L94.689,260.322z M92.456,268.009c0.195-0.322,0.411-1.258,0.765-1.844c0.198-0.33,0.609-0.254,0.662-0.603
	c0.076-0.507-0.349-1.121-0.62-1.43c-0.223-0.251-0.719-0.678-1.323-0.705c-0.202-0.007-0.42,0.045-0.641,0.146
	c-0.482,0.224-0.71,1.247-1.221,1.451c-0.799,0.318-1.688,0.233-2.067,0.104c-1.043-0.356-1.86-1.171-2.355-0.892
	c-0.358,0.202,2.026,1.858,3.349,3.066c0.439,0.402,0.765,0.772,0.971,0.932c0.264,0.207,1.197-0.319,1.819-0.372
	C92.119,267.835,92.341,268.202,92.456,268.009L92.456,268.009z M88.881,315.765c0.423,0.259,1.454,0.845,2.272,0.643
	c0.746-0.184,0.785-1.178,0.787-1.76c0.005-2.537-0.186-3.839-1.075-3.854C89.167,310.763,86.584,314.372,88.881,315.765
	L88.881,315.765z M85.098,309.986c0.333,0.377,0.723,1.493,1.157,1.615c0.724,0.205,1.511-0.762,2.005-0.829
	c1.058-0.142,0.963-1.08,1.282-1.513c0.466-0.629,1.033-0.886,0.868-1.801c-0.146-0.81-0.413-1.51-0.723-2.178
	c-0.142-0.301-0.082-0.742-0.394-0.932c-0.278-0.17-0.591-0.231-0.91-0.229c-0.53,0.01-1.073,0.224-1.55,0.52
	c-0.804,0.499-2.386,1.304-2.584,3.583C84.165,309.213,84.735,309.577,85.098,309.986L85.098,309.986z M82.907,304.95
	c0.512,0.245,1.27-0.283,2.129-0.786c2.775-1.626,3.753-3.324,3.907-4.062c0.123-0.59-0.882-2.666-1.489-2.673
	c-0.795-0.007-2.082,0.766-2.273,0.994c-0.653,0.779-1.711,1.617-2.233,2.384C82.011,302.18,81.428,304.249,82.907,304.95
	L82.907,304.95z M82.142,298.63c0.622-0.305,0.797-0.958,1.55-1.595c0.579-0.488,1.723-0.896,2.315-1.429
	c0.988-0.89,1.314-1.897,1.344-2.592c0.02-0.459,0.193-0.923-0.455-1.117c-0.152-0.046-0.301-0.064-0.475-0.062
	c-1.213,0.011-2.861,1.125-3.908,2.404c-1.394,1.7-1.426,2.602-1.426,4.517C81.313,298.756,81.749,298.825,82.142,298.63
	L82.142,298.63z M82.059,291.069c1.01-0.365,2.69-0.981,3.35-1.637c1.054-1.051,1.242-2.418,0.062-2.342
	c-0.384,0.025-0.829,0.007-1.24,0c-0.413-0.007-0.786,0.006-1.096,0.124c-0.297,0.115-0.212,0.675-0.517,0.891
	c-0.381,0.273-1.126,0.509-1.488,1.016C80.335,290.24,80.275,291.715,82.059,291.069L82.059,291.069z M77.326,309.736
	c0-1.1-1.013-1.621-1.013-2.734H72.2c0,0.283-0.391,0.684-0.682,0.684c0,0.802-1.695,0.32-1.695,1.036
	c-0.921,0-1.142,0.684-2.067,0.684c0,0.717-1.366,0.944-1.366,1.367c-1.167,0-1.38,1.015-2.377,1.015
	c0,0.808-1.736,1.214-1.736,2.425c-0.678,0-1.013,1.653-1.013,2.383c0.615,0,0.23-1.015,1.013-1.015c0-0.709,1.385-0.89,1.385-2.052
	c1.192,0,1.688-1.741,2.398-1.741c0-0.843,1.695-0.972,1.695-1.698c1.268,0,1.397-0.684,2.396-0.684
	c0-1.058,3.141-1.036,4.115-1.036c0,0.699,1.364,0.338,1.364,1.036c1.075,0,1.054,1.015,1.695,1.015
	c0,0.825,1.364,2.033,1.364,1.036C78.077,311.456,78.172,309.736,77.326,309.736L77.326,309.736z M51.508,176.783
	c-0.108,0.023-0.165,0.372-0.165,1.182c-0.392,0-4.425,46.031-4.425,50.119c4.083,0,7.841-5.491,10.232-5.491
	c0-1.358,7.544-3.002,7.544-3.79c0.558,0,0.804-1.017,1.366-1.017c0-1.334-8.21,3.751-9.923,3.751c0,3.802-7.466-5.471-3.059-5.471
	c0-3.775,9.901-4.648,9.901-10.98c-2.765,0-8.888-15.369-8.888-18.896C53.979,186.19,52.093,176.654,51.508,176.783L51.508,176.783z
	 M64.778,122.708c-0.576-2.218-1.888-4.626-2.79-7.189c-1.722-4.896-2.165-10.472-3.39-11.334c-0.055-0.039-0.115-0.06-0.167-0.062
	c-1.592-0.034-1.592,17.383-2.108,18.521c-0.779,1.725-4.343,30.893-2.563,31.991c2.894,1.789,7.834-14.14,7.834-17.86
	c0.117,0,3.27-8.959,3.266-10.774C64.86,125.115,65.163,124.185,64.778,122.708L64.778,122.708z M66.886,131.222
	c-0.096-0.196-0.336-1.228-0.909-1.098c-0.082,0.02-0.172,0.053-0.269,0.124c-1.04,0.774-2.717,8.21-2.935,8.6
	c-0.388,0.687,0.382,1.427,0.601,1.263c1.413-1.068,3.789-3.98,4.113-7.209C67.587,131.89,67.111,131.675,66.886,131.222
	L66.886,131.222z M78.153,116.595c-0.478-0.016-1.204,0.803-2.563,1.554c-1.943,1.075-4.155,2.178-5.686,3.938
	c-0.986,1.133-1.282,2.395-1.219,3.252c0.062,0.859-0.113,1.979,0.868,2.942c0.731,0.719,1.538,0.283,1.592,0.291
	c0.301,0.039,1.002-1.453,2.129-3.397c0.903-1.564,2.195-3.128,3.1-4.683c0.558-0.96,1.12-1.902,1.612-2.506
	c0.338-0.415,0.753-0.632,0.704-0.767C78.532,116.781,78.369,116.602,78.153,116.595L78.153,116.595z M78.587,184.884
	c-0.93-0.551-1.892-1.716-2.584-2.589c-0.402-0.507-0.875-1.789-0.744-3.316c0.127-1.48,0.845-3.215,1.261-3.709
	c0.406-0.483,1.454-0.512,1.819-1.076c1.068-1.656,0-2.686-0.662-2.757c-0.652-0.068-1.298,0.923-2.315,1.948
	c-2.081,2.098-4.835,5.382-6.22,7.313c-0.627,0.874-3.073,4.692-4.279,9.22c-1.159,4.34-1.424,8.868-0.703,12.037
	c0.281,1.24,0.992,2.565,1.902,2.799c1.139,0.29,2.044-1.045,3.533-2.466c1.265-1.208,2.884-2.127,3.805-3.563
	c0.694-1.086,1.3-2.359,1.116-3.273c-0.117-0.572-1.095-0.82-1.426-1.202c-0.242-0.276-0.328-1.114,0.268-1.721
	c0.28-0.285,0.76-0.305,1.159-0.621c0.503-0.402,2.713-2.451,2.956-3.979c0.241-1.526-1.491-2.536-0.951-3.025
	c0.301-0.271,0.735-0.384,1.178,0.043c0.569,0.545,1.166,1.727,1.612,2.051c0.618,0.446,0.824-0.614,0.868-1.036
	C80.254,185.246,79.407,185.369,78.587,184.884L78.587,184.884z M75.156,234.091c0.117-1.879,0.388-3.335,0.453-4.869
	c0.092-2.159,0.372-5.129-0.041-5.013c-0.248,0.067-0.762,1.245-1.695,4.372c-1.013,3.394-0.91,8.161-0.785,10.357
	c0.347,6.114,1.811,9.179,2.749,11.087c0.909,1.846,1.284,2.628,1.901,2.216c0.306-0.204-0.774-2.953-1.385-5.408
	C75.411,243.046,74.889,238.348,75.156,234.091L75.156,234.091z M82.039,269.126c-1.095-0.673-3.422-1.727-5.023-3.004
	c-2.149-1.715-4.293-3.89-6.015-5.387c-1.842-1.601-3.686-3.49-5.851-4.826c-1.507-0.932-6.681-3.11-8.433-3.004
	c-0.994,0.059-2.042,0.372-2.894,0.538c-0.487,0.093-0.895,0.102-1.116,0.187l-1.695,0.497c-0.655,0.188-2.357,0.22-3.183,0.455
	c-0.962,0.273-1.711,0.849-2.253,1.306c-0.848,0.712-1.231,1.571-1.881,2.59c-2.266,3.546-2.947,7.852-0.765,11.768
	c2.125,3.815,6.137,6.584,9.198,8.081c6.463,3.161,9.616,4.155,13.539,4.206c1.369,0.019,14.404-0.066,14.448-0.664
	c0.108-1.45-4.862-3.892-9.281-7.003c-0.556-0.39-5.776-4.802-11.844-8.95c-2.503-1.711-5.257-3.402-7.565-4.848
	c-0.894-0.561-2.039-1.449-3.1-2.361c-0.595-0.514-1.452-0.895-1.551-1.556c-0.027-0.179,0.971-1.339,2.481-2.153
	c1.536-0.831,3.755-1.11,3.803-1.119h0.021c0.428-0.037,1.279,0.063,2.439,0.042c0.457-0.009,0.359,0.735,0.765,1.43
	c0.108,0.184,0.769,0.827,1.838,1.513c1.612,1.03,4.242,1.601,6.594,3.025c0.618,0.372,4.389,2.86,8.311,5.198
	c5.739,3.424,9.351,5.187,9.59,4.912C82.688,269.917,82.863,269.637,82.039,269.126L82.039,269.126z M104.715,164.704
	c-2.372,1.011-9.701,1.626-11.823,1.617c-1.998-0.009-3.879-0.274-5.314,0.331c-1.898,0.802-6.787,0.689-4.444,4.454
	c0.186,0.298,1.015,0.696,1.53,0.768c2.655,0.366,4.141,1.979,4.609,3.17c0.32,0.812-0.142,0.909,0.207,2.32
	c0.202,0.813,0.335,1.578,0.661,1.72c0.508,0.218,0.771-0.486,1.385-1.224c0.574-0.688,1.499-1.387,1.862-1.968
	c0.421-0.681,3-2.575,3.781-3.066c0.609-0.382,4.852-4.796,4.94-4.785C102.387,168.069,105.184,164.503,104.715,164.704
	L104.715,164.704z M105.728,255.391c-0.317-0.023-0.646-0.19-0.91-0.146c-0.087,0.014-0.152,0.053-0.227,0.126
	c-0.544,0.515-0.028,2.005,0.331,2.815c0.103,0.234,0.742,0.073,1.343,0c0.611-0.074,0.912-0.266,0.868-1.263
	C107.086,255.842,107.372,255.511,105.728,255.391L105.728,255.391z M112.425,245.778c-0.462-0.014-0.912-0.005-1.323,0.02
	c-3.187,0.188-4.52,1.651,1.385,3.833c2.227,0.824,5.354,0.805,7.978,1.596c2.379,0.716,5.151,1.434,7.524,2.176
	c5.735,1.79,10.822,3.404,11.205,3.501c1.729,0.445,2.184-0.952,0.578-2.299c-1.497-1.256-4.796-2.255-7.214-3.211
	c-1.762-0.701-2.788-1.528-3.617-1.72c-1.701-0.396-4.549-1.819-7.834-2.611C119.839,246.755,115.652,245.865,112.425,245.778
	L112.425,245.778z M117.124,188.645c1.502-0.059,3.004-0.246,4.506-0.305c9.547-0.481,21.48-8.515,26.336-6.695
	c0.275-1.406,0.549-2.811,0.824-4.218c-9.169-2.34-16.554-4.052-24.214-3.738c-7.539,0.623-10.05,2.956-10.05,2.956
	S113.649,182.07,117.124,188.645L117.124,188.645z M142.075,173.82c2.359,0.384,5.617,1.376,6.887,1.695
	c0.03-1.217,0.059-2.436,0.087-3.652c-4.804,0.031-10.879-4.885-11.999-5.739c-1.646-1.24-5.223-5.346-11.827-6.695
	c-6.321,3.373-9.366,9.219-10.524,14.783C124.386,169.114,139.87,173.46,142.075,173.82L142.075,173.82z M131.049,75.986
	c-0.021-0.016-0.042-0.023-0.062-0.021c-0.308,0.023-0.676,1.892-2.295,3.44c-1.073,1.029-1.635,2.85-2.77,4.371
	c-1.208,1.621-1.896,3.291-3.141,5.636c-1.467,2.758-2.175,4.929-1.881,5.448c0.024,0.044,0.216,0.149,0.413-0.02
	c1.381-1.183,6.355-7.046,6.945-7.46c1.715-1.204,3.938-3.875,4.363-6.318C133.03,78.694,131.266,76.15,131.049,75.986
	L131.049,75.986z M132.807,120.531c-0.039,0-0.073,0.003-0.104,0.021c-0.375,0.208-2.627,4.001-5.973,8.662
	c-2.212,3.078-4.834,6.573-6.699,10.131c-1.218,2.326-3.044,7.177-3.493,9.924c-0.289,1.771-0.593,4.167-0.165,4.309
	c0.735,0.241,3.696-1.985,7.109-5.45c2.655-2.694,5.518-6.304,8.311-9.012c2.159-2.097,4.958-3.169,6.532-4.558
	c2.607-2.306,2.811-4.892,1.59-6.941c-0.731-1.231-2.246-2.033-3.285-3.108C134.73,122.548,133.38,120.546,132.807,120.531
	L132.807,120.531z M157.506,55.661c-0.149,0.011-12.269,8.773-14.634,10.193c-2.839,1.704-5.772,3.302-6.056,3.335
	c-1.302,0.156-1.915,2.662-1.819,4.745c0.078,1.725,0.133,3.587,0.763,4.102c0.776,0.632,1.894-0.212,2.067-0.622
	c0.407-0.955,5.353-7.211,6.139-7.211c0-0.543,6.203-6.126,6.492-6.174C150.505,64.022,159.412,55.51,157.506,55.661L157.506,55.661
	z M195.583,82.906c0.007-0.189-0.2-0.266-0.579-0.269c-1.138-0.014-3.815,0.68-6.8,1.284c-3.959,0.8-7.609,1.422-10.977,2.694
	c-5.254,1.984-9.884,4.887-14.367,7.438c-5.027,2.861-9.07,6.538-15.11,9.8c-1.04,0.562-2.646,2.413-2.646,4.393
	c0,0.951,1.63,2.899,1.655,6.07c0.018,2.228-0.886,4.672-1.178,6.92c-0.163,1.25-0.71,2.287-0.724,3.254
	c-0.021,1.412,0.537,2.533,0.6,2.673c0.356,0.777,1.391-0.558,2.833-1.989c1.53-1.52,7.214-6.286,12.154-10.567
	c4.194-3.638,7.91-6.788,8.123-7.003c0.923-0.936,7.86-7.874,14.819-13.924C189.338,88.506,195.531,84.151,195.583,82.906
	L195.583,82.906z M184.256,235.957c-0.871-0.614-2.041-0.547-2.522-0.56c-0.072-0.002-0.126-0.009-0.166,0
	c-0.276,0.061,0.166,0.459,0.538,2.218c1.047,4.959,6.297,10.511,8.269,14.462c0.682,1.367,0.871,3.075,1.611,4.267
	c0.983,1.582,2.529,1.595,2.563,1.597c1.881,0.018-0.137-4.283-2.625-9.139c-1.547-3.015-3.194-6.269-4.671-8.742
	C185.949,237.875,184.757,236.311,184.256,235.957L184.256,235.957z M196.946,272.69c0.569-0.588,0.237-1.02,0.021-1.636
	c-0.558-1.573-2.682-3.848-2.749-3.854c-0.209-0.02-0.784,0.113-1.096,0.581c-0.456,0.686-0.631,1.822-0.6,1.948
	C192.921,271.366,195.174,274.524,196.946,272.69L196.946,272.69z M194.197,283.36c0.096,1.683,0.38,2.501,1.571,1.782
	c0.1-0.061,0.217-0.144,0.331-0.227c0.341-0.25,0.507-0.139,0.516-0.498c0.02-0.669-0.076-1.783-0.723-1.781
	C194.795,282.641,194.166,282.789,194.197,283.36L194.197,283.36z M192.958,241.488c-1.474-2.577-2.818-5.003-4.444-4.889
	c-0.56,0.037-0.453,0.446-0.496,0.703c-0.096,0.565,0.435,1.364,1.136,2.673c0.342,0.635,0.928,0.97,0.951,1.825
	c0.004,0.096,3.992,6.587,4.114,6.173c0.061-0.208,1.027,3.357,2.253,5.512c0.953,1.676,2.168,2.331,2.521,0.745
	c0.313-1.402-2.331-4.336-3.059-5.76c-0.71-1.392-0.981-2.965-1.509-4.267C193.827,242.724,193.017,241.591,192.958,241.488
	L192.958,241.488z M200.067,270.474c0.222-0.343,0.729-0.388,1.054-0.58c0.477-0.282,0.707-0.704,0.291-1.471
	c-0.272-0.503-1.176-1.263-1.469-2.86c-0.076-0.42-0.703-0.686-1.28-0.703c-0.089-0.004-0.167-0.009-0.248,0
	c-0.246,0.024-0.468,0.109-0.601,0.248C196.876,266.085,199.643,271.131,200.067,270.474L200.067,270.474z M198.828,282.967
	c0.166,0.212,0.832,0.374,1.406,0.104c0.838-0.396,1.635-1.401,1.59-1.989c-0.021-0.28-0.012-0.701-0.558-0.851
	c-0.062-0.016-0.223-0.018-0.412-0.021c-0.569-0.008-1.486,0.048-1.571,0.188C199.033,280.801,198.188,282.151,198.828,282.967
	L198.828,282.967z M193.929,237.987c-0.624,0.003-0.283,0.747-0.062,1.078c0.431,0.642,0.315,1.933,0.911,2.983
	c0.897,1.583,2.623,2.874,3.905,2.672c0.762-0.12,1.385-1.008,2.895-1.844c1.555-0.86,3.274-1.535,3.266-1.553
	C204.462,240.621,196.378,237.97,193.929,237.987L193.929,237.987z M206.414,246.813c-0.117-0.312-0.344-0.445-0.62-0.456
	c-0.831-0.033-2.198,0.981-3.039,1.265c-0.376,0.126-1.566,0.975-2.191,2.03c-0.854,1.447,0.51,2.524,1.695,3.854
	C202.843,254.158,207.753,250.401,206.414,246.813L206.414,246.813z M204.678,267.573c0.149,0.066,0.466-0.164,0.64-0.104
	c0.396,0.143,0.071-0.264,0.124-0.393c0.191-0.461-0.86-1.896-1.197-2.466c-0.694-1.174-1.478-2.699-1.881-2.714
	c-0.244-0.009-0.359,0.528-0.229,2.011c0.103,1.164,0.729,1.702,1.116,2.175C203.741,266.68,204.033,267.295,204.678,267.573
	L204.678,267.573z M204.326,280.17c0.673,0.363,0.943-0.165,1.322-0.498c0.305-0.266,0.835-0.299,0.951-0.455
	c0.071-0.094-0.145-0.346-0.248-0.374c-0.533-0.145-0.405-0.85-1.261-0.703c-0.163,0.027-0.411-0.076-0.682-0.042
	c-0.091,0.013-0.179,0.028-0.27,0.083C203.352,278.673,203.681,279.823,204.326,280.17L204.326,280.17z M210.961,275.944
	c-0.119-0.039-0.241-0.063-0.351-0.062c-0.33,0.003-0.599,0.163-0.785,0.227c-0.981,0.337-2.035,0.855-2.212,1.326
	c-0.167,0.438,0.34,0.533,0.496,0.705c0.229,0.252,0.229,0.468,0.703,0.332c0.749-0.217,1.459-0.81,1.633-0.953
	c0.425-0.353,1.125-0.317,1.24-0.684C211.818,276.405,211.29,276.05,210.961,275.944L210.961,275.944z M211.582,280.316
	c-2.602,1.311-5.373,3.087-8.104,4.826c-1.824,1.164-3.958,1.19-5.664,2.051c-1.304,0.661-2.405,2.363-3.39,2.942
	c-3.352,1.974-7.039,1.454-7.648,2.342c-0.248,0.364,0.827,1.415,1.633,1.824c0.648,0.329,0.799-0.083,1.345-0.395
	c1.135-0.646,3.266-1.481,5.477-2.776c0.138-0.081,4.647-3.248,9.033-5.469c3.465-1.756,7.035-2.692,7.05-2.694
	c3.701-0.492,8.419-3.707,10.438-4.538c0.555-0.227,1.883-0.005,1.488,0.603c-0.379,0.581-2.009,1.171-2.728,1.655
	c-0.378,0.258-0.226,0.592-0.104,0.644c0.329,0.142,1.367,0.574,2.419-0.167c2.903-2.04,4.451-3.089,7.091-5.22
	c1.071-0.864,3.111-1.448,3.781-2.301c0.631-0.799-0.037-1.879-0.703-2.568c-0.073-0.076-0.179-0.118-0.289-0.124
	c-0.765-0.033-2.355,1.552-4.051,2.652c-1.856,1.204-3.824,2.767-6.263,3.873c-0.762,0.346-1.767,0.507-2.585,0.415
	c-0.767-0.085-1.35-0.417-2.045-0.248C214.814,278.353,212.441,279.881,211.582,280.316L211.582,280.316z M226.691,147.073
	c-0.178,0.11-3.763,5.206-3.763,5.491c-0.057,0-7.172,9.882-7.172,10.649c-0.396,0-4.443,6.102-4.443,6.857
	c1.58,0,5.165-5.035,8.702-9.738c1.2-1.598,2.419-3.401,3.679-4.703c1.112-1.149,2.303-1.83,2.935-2.735
	c0.661-0.944,0.35-2.01,0.475-2.425C228.063,147.374,226.801,147.005,226.691,147.073L226.691,147.073z M232.933,248.658
	c-0.379-0.501-1.557-0.66-3.059-0.602c-0.899,0.035-1.925,0.155-2.956,0.312c-2.133,0.318-4.303,0.666-5.705,1.968
	c-0.936,0.87-2.239,8.145-2.396,9.281c-0.409,2.971-0.864,6.95-0.93,10.4c-0.021,1.104-0.596,2.544,0.248,3.025
	c0.377,0.217,2.443-1.792,4.649-3.148c1.304-0.799,3.098-1.837,5.726-2.901c1.288-0.52,3.042-0.674,4.175-1.18
	c0.73-0.326,1.142-1.005,1.18-1.306c0.37-2.868,0.324-8.685-0.455-12.7C233.172,250.577,233.482,249.375,232.933,248.658
	L232.933,248.658z M244.448,131.305c0-0.485,5.677-6.547,5.829-6.547c0-0.179,5.418-6.858,5.457-6.858
	c0-0.395-0.131-0.535-0.353-0.498c-0.951,0.16-3.539,3.604-4.092,3.604c0,0.222-6.121,5.822-6.491,5.822
	c0,0.517-3.913,3.771-4.444,3.771c0,0.684-5.061,3.771-5.808,5.822c-0.274,0.751-1.109,2-0.849,3.48
	c0.07,0.398,0.144,1.431,0.558,1.886c0.25,0.272,0.744,0.147,1.097,0.083c1.21-0.221,1.348-1.288,1.571-1.658
	C237.292,139.602,243.778,131.305,244.448,131.305L244.448,131.305z M242.111,268.61c-0.246-0.718-1.125-1.55-1.571-2.135
	c-0.405-0.531-0.771-0.958-1.013-0.891c-0.307,0.087-0.396,0.965-0.062,3.396c0.05,0.36,0.565,1.127,1.138,1.244
	C241.442,270.397,242.577,269.954,242.111,268.61L242.111,268.61z M241.904,276.399c-0.329,0.02-0.714,0.117-1.116,0.353
	c-0.914,0.537-1.868,2.026-2.935,2.507c-0.884,0.398-1.649,1.323-2.336,1.824c-1.247,0.908-3.01,2.4-3.493,3.542
	c-0.069,0.165-0.31,0.705-0.165,1.016c0.154,0.331,0.851,0.688,0.971,0.436c0.252-0.529,4.235-2.852,5.085-3.626
	c0.84-0.764,1.911-1.346,2.563-2.218c1.387-1.854,2.536-3.481,2.439-3.604C242.854,276.544,242.457,276.37,241.904,276.399
	L241.904,276.399z M264.27,288.81c-1.447-1.358-4.863-2.095-7.524-2.61c-1.298-0.252-2.653-0.14-3.059-0.622
	c-0.884-1.052,0.983-1.163,2.398-1.822c0.795-0.37,1.358-1.358,1.447-1.7c0.464-1.756-2.526-3.118-3.515-3.521
	c-1.448-0.592-3.108-0.857-4.734-0.808c-2.088,0.063-4.134,0.636-5.662,1.72c-2.096,1.484-3.033,2.446-3.948,3.19
	c-0.983,0.8-1.644,1.851-2.356,2.362c-0.958,0.688-2.646,1.87-2.088,2.423c0.22,0.217,0.388,1.236,1.674,0.746
	c0.577-0.22,3.447-2.999,5.87-4.932c1.456-1.158,2.91-1.951,3.039-1.968c0.47-0.06,0.388,0.696,0.435,1.554
	c0.053,0.973,0.194,2.059-0.084,2.218c-0.905,0.522-1.99,7.207,1.118,8.743c0.15,0.076,0.714-0.552,1.095-1.347
	c0.384-0.795,0.602-1.739,1.178-1.574c0.573,0.163,0.841,1.232,1.406,2.153c0.283,0.464,1.243,2.309,2.274,3.709
	c0.64,0.872,0.999,1.776,1.714,1.804c0.922,0.033,2.229-0.962,3.35-1.036c1.991-0.132,4.434,0.294,5.87-0.787
	C266.268,295.124,266.962,291.333,264.27,288.81L264.27,288.81z M268.756,314.252c-5.446-2.949-12.34-6.641-17.363-9.903
	c-4.41-2.865-10.579-5.841-14.903-8.785c-6.067-4.13-10.976-7.409-13.147-7.499c-0.309-0.015-0.57,0.04-0.764,0.164
	c-0.301,0.195-1.654,1.449-3.845,2.633c-2.365,1.276-5.325,3.098-8.164,4.578c-4.432,2.312-8.399,4.142-8.062,4.393
	c0.44,0.328,0.991,0.496,1.613,0.539c1.297,0.09,2.225-1.536,3.369-2.03c2.771-1.199,6.071-2.381,8.888-4.393
	c3.232-2.31,5.204-4.277,7.028-4.455c1.787-0.173,2.487,0.796,4.32,2.092c1.176,0.833,3.106,1.873,5.063,2.735
	c2.294,1.013,7.11,4.012,12.526,7.418c2.803,1.763,5.933,3.298,8.619,4.931c2.673,1.623,6.194,3.403,9.488,5.325
	c2.329,1.36,4.464,2.974,6.471,3.813c1.245,0.519,2.984,1.11,3.267,1.139C274.695,317.106,271.613,315.8,268.756,314.252
	L268.756,314.252z"/>
</svg>
